{
    "asset" : {
        "generator" : "Khronos glTF Blender I/O v3.2.40",
        "version" : "2.0"
    },
    "scene" : 0,
    "scenes" : [
        {
            "name" : "Scene",
            "nodes" : [
                0
            ]
        }
    ],
    "nodes" : [
        {
            "mesh" : 0,
            "name" : "PlantFinal._m_1.001",
            "rotation" : [
                0.45426443219184875,
                -0.5418891906738281,
                0.5418891906738281,
                0.4542642831802368
            ],
            "scale" : [
                0.3145997226238251,
                0.3145997226238251,
                0.31200000643730164
            ],
            "translation" : [
                -0.0010986328125,
                0,
                -0.00048828125
            ]
        }
    ],
    "materials" : [
        {
            "alphaMode" : "BLEND",
            "doubleSided" : true,
            "name" : "Foliage__leafcard_mat",
            "pbrMetallicRoughness" : {
                "baseColorFactor" : [
                    0.5121588110923767,
                    0.7167901992797852,
                    0.3890150189399719,
                    0.550000011920929
                ],
                "metallicFactor" : 0
            }
        },
        {
            "doubleSided" : true,
            "name" : "Bark_mat",
            "pbrMetallicRoughness" : {
                "baseColorFactor" : [
                    0.4869009852409363,
                    0.25631600618362427,
                    0.053220998495817184,
                    1
                ],
                "metallicFactor" : 0,
                "roughnessFactor" : 0.8414227962493896
            }
        }
    ],
    "meshes" : [
        {
            "name" : "Foliage__leafcard.001",
            "primitives" : [
                {
                    "attributes" : {
                        "POSITION" : 0,
                        "NORMAL" : 1,
                        "TEXCOORD_0" : 2
                    },
                    "indices" : 3,
                    "material" : 0
                },
                {
                    "attributes" : {
                        "POSITION" : 4,
                        "NORMAL" : 5,
                        "TEXCOORD_0" : 6
                    },
                    "indices" : 7,
                    "material" : 1
                }
            ]
        }
    ],
    "accessors" : [
        {
            "bufferView" : 0,
            "componentType" : 5126,
            "count" : 84,
            "max" : [
                13.56375503540039,
                11.979902267456055,
                -17.97369384765625
            ],
            "min" : [
                -13.61645221710205,
                -12.00332260131836,
                -43.78550338745117
            ],
            "type" : "VEC3"
        },
        {
            "bufferView" : 1,
            "componentType" : 5126,
            "count" : 84,
            "type" : "VEC3"
        },
        {
            "bufferView" : 2,
            "componentType" : 5126,
            "count" : 84,
            "type" : "VEC2"
        },
        {
            "bufferView" : 3,
            "componentType" : 5123,
            "count" : 132,
            "type" : "SCALAR"
        },
        {
            "bufferView" : 4,
            "componentType" : 5126,
            "count" : 36,
            "max" : [
                1.4433263540267944,
                1.3584249019622803,
                0.00018297747010365129
            ],
            "min" : [
                -1.4316158294677734,
                -1.375990629196167,
                -19.33513832092285
            ],
            "type" : "VEC3"
        },
        {
            "bufferView" : 5,
            "componentType" : 5126,
            "count" : 36,
            "type" : "VEC3"
        },
        {
            "bufferView" : 6,
            "componentType" : 5126,
            "count" : 36,
            "type" : "VEC2"
        },
        {
            "bufferView" : 7,
            "componentType" : 5123,
            "count" : 60,
            "type" : "SCALAR"
        }
    ],
    "bufferViews" : [
        {
            "buffer" : 0,
            "byteLength" : 1008,
            "byteOffset" : 0
        },
        {
            "buffer" : 0,
            "byteLength" : 1008,
            "byteOffset" : 1008
        },
        {
            "buffer" : 0,
            "byteLength" : 672,
            "byteOffset" : 2016
        },
        {
            "buffer" : 0,
            "byteLength" : 264,
            "byteOffset" : 2688
        },
        {
            "buffer" : 0,
            "byteLength" : 432,
            "byteOffset" : 2952
        },
        {
            "buffer" : 0,
            "byteLength" : 432,
            "byteOffset" : 3384
        },
        {
            "buffer" : 0,
            "byteLength" : 288,
            "byteOffset" : 3816
        },
        {
            "buffer" : 0,
            "byteLength" : 120,
            "byteOffset" : 4104
        }
    ],
    "buffers" : [
        {
            "byteLength" : 4224,
            "uri" : "data:application/octet-stream;base64,"
        }
    ]
}
